<svg width="165" height="35" viewBox="0 0 165 35" fill="none" xmlns="http://www.w3.org/2000/svg">
<path d="M36.84 0.495999V34H30.12V12.208L21.144 34H16.056L7.032 12.208V34H0.312V0.495999H7.944L18.6 25.408L29.256 0.495999H36.84ZM41.7559 20.608C41.7559 17.92 42.2839 15.536 43.3399 13.456C44.4279 11.376 45.8839 9.776 47.7079 8.656C49.5639 7.536 51.6279 6.976 53.8999 6.976C55.8839 6.976 57.6119 7.376 59.0839 8.176C60.5879 8.976 61.7879 9.984 62.6839 11.2V7.408H69.4519V34H62.6839V30.112C61.8199 31.36 60.6199 32.4 59.0839 33.232C57.5799 34.032 55.8359 34.432 53.8519 34.432C51.6119 34.432 49.5639 33.856 47.7079 32.704C45.8839 31.552 44.4279 29.936 43.3399 27.856C42.2839 25.744 41.7559 23.328 41.7559 20.608ZM62.6839 20.704C62.6839 19.072 62.3639 17.68 61.7239 16.528C61.0839 15.344 60.2199 14.448 59.1319 13.84C58.0439 13.2 56.8759 12.88 55.6279 12.88C54.3799 12.88 53.2279 13.184 52.1719 13.792C51.1159 14.4 50.2519 15.296 49.5799 16.48C48.9399 17.632 48.6199 19.008 48.6199 20.608C48.6199 22.208 48.9399 23.616 49.5799 24.832C50.2519 26.016 51.1159 26.928 52.1719 27.568C53.2599 28.208 54.4119 28.528 55.6279 28.528C56.8759 28.528 58.0439 28.224 59.1319 27.616C60.2199 26.976 61.0839 26.08 61.7239 24.928C62.3639 23.744 62.6839 22.336 62.6839 20.704ZM83.8391 12.928V25.792C83.8391 26.688 84.0471 27.344 84.4631 27.76C84.9111 28.144 85.6471 28.336 86.6711 28.336H89.7911V34H85.5671C79.9031 34 77.0711 31.248 77.0711 25.744V12.928H73.9031V7.408H77.0711V0.831998H83.8391V7.408H89.7911V12.928H83.8391ZM102.449 12.928V25.792C102.449 26.688 102.657 27.344 103.073 27.76C103.521 28.144 104.257 28.336 105.281 28.336H108.401V34H104.177C98.5125 34 95.6805 31.248 95.6805 25.744V12.928H92.5125V7.408H95.6805V0.831998H102.449V7.408H108.401V12.928H102.449ZM125.042 34.432C122.482 34.432 120.178 33.872 118.13 32.752C116.082 31.6 114.466 29.984 113.282 27.904C112.13 25.824 111.554 23.424 111.554 20.704C111.554 17.984 112.146 15.584 113.33 13.504C114.546 11.424 116.194 9.824 118.274 8.704C120.354 7.552 122.674 6.976 125.234 6.976C127.794 6.976 130.114 7.552 132.194 8.704C134.274 9.824 135.906 11.424 137.09 13.504C138.306 15.584 138.914 17.984 138.914 20.704C138.914 23.424 138.29 25.824 137.042 27.904C135.826 29.984 134.162 31.6 132.05 32.752C129.97 33.872 127.634 34.432 125.042 34.432ZM125.042 28.576C126.258 28.576 127.394 28.288 128.45 27.712C129.538 27.104 130.402 26.208 131.042 25.024C131.682 23.84 132.002 22.4 132.002 20.704C132.002 18.176 131.33 16.24 129.986 14.896C128.674 13.52 127.058 12.832 125.138 12.832C123.218 12.832 121.602 13.52 120.29 14.896C119.01 16.24 118.37 18.176 118.37 20.704C118.37 23.232 118.994 25.184 120.242 26.56C121.522 27.904 123.122 28.576 125.042 28.576ZM154.019 34.432C151.843 34.432 149.891 34.048 148.163 33.28C146.435 32.48 145.059 31.408 144.035 30.064C143.043 28.72 142.499 27.232 142.403 25.6H149.171C149.299 26.624 149.795 27.472 150.659 28.144C151.555 28.816 152.659 29.152 153.971 29.152C155.251 29.152 156.243 28.896 156.947 28.384C157.683 27.872 158.051 27.216 158.051 26.416C158.051 25.552 157.603 24.912 156.707 24.496C155.843 24.048 154.451 23.568 152.531 23.056C150.547 22.576 148.915 22.08 147.635 21.568C146.387 21.056 145.299 20.272 144.371 19.216C143.475 18.16 143.027 16.736 143.027 14.944C143.027 13.472 143.443 12.128 144.275 10.912C145.139 9.696 146.355 8.736 147.923 8.032C149.523 7.328 151.395 6.976 153.539 6.976C156.707 6.976 159.235 7.776 161.123 9.376C163.011 10.944 164.051 13.072 164.243 15.76H157.811C157.715 14.704 157.267 13.872 156.467 13.264C155.699 12.624 154.659 12.304 153.347 12.304C152.131 12.304 151.187 12.528 150.515 12.976C149.875 13.424 149.555 14.048 149.555 14.848C149.555 15.744 150.003 16.432 150.899 16.912C151.795 17.36 153.187 17.824 155.075 18.304C156.995 18.784 158.579 19.28 159.827 19.792C161.075 20.304 162.147 21.104 163.043 22.192C163.971 23.248 164.451 24.656 164.483 26.416C164.483 27.952 164.051 29.328 163.187 30.544C162.355 31.76 161.139 32.72 159.539 33.424C157.971 34.096 156.131 34.432 154.019 34.432Z" fill="black"/>
</svg>
